<svg width="40" height="15" viewBox="0 0 40 15" fill="none" xmlns="http://www.w3.org/2000/svg">
<path d="M0.777572 14V0.909091H5.35428C6.26621 0.909091 7.01834 1.06676 7.61067 1.3821C8.203 1.69318 8.64405 2.11293 8.93382 2.64134C9.2236 3.16548 9.36848 3.74716 9.36848 4.38636C9.36848 4.94886 9.26834 5.41335 9.06805 5.77983C8.87203 6.14631 8.61209 6.43608 8.28823 6.64915C7.96862 6.86222 7.62132 7.01989 7.24632 7.12216V7.25C7.64689 7.27557 8.04959 7.41619 8.45442 7.67188C8.85925 7.92756 9.19803 8.29403 9.47075 8.77131C9.74348 9.24858 9.87984 9.83239 9.87984 10.5227C9.87984 11.179 9.7307 11.7692 9.4324 12.2933C9.13411 12.8175 8.66323 13.233 8.01976 13.5398C7.37629 13.8466 6.53894 14 5.50769 14H0.777572ZM2.3628 12.5938H5.50769C6.5432 12.5938 7.27828 12.3935 7.71294 11.9929C8.15186 11.5881 8.37132 11.098 8.37132 10.5227C8.37132 10.0795 8.2584 9.67045 8.03254 9.29545C7.80669 8.91619 7.48496 8.61364 7.06734 8.38778C6.64973 8.15767 6.15541 8.04261 5.58439 8.04261H2.3628V12.5938ZM2.3628 6.66193H5.30314C5.78041 6.66193 6.21081 6.56818 6.59433 6.38068C6.98212 6.19318 7.28894 5.92898 7.51479 5.58807C7.7449 5.24716 7.85996 4.84659 7.85996 4.38636C7.85996 3.81108 7.65967 3.32315 7.25911 2.92259C6.85854 2.51776 6.2236 2.31534 5.35428 2.31534H2.3628V6.66193ZM14.8093 14.2301C14.1871 14.2301 13.6225 14.1129 13.1154 13.8786C12.6083 13.6399 12.2056 13.2969 11.9073 12.8494C11.609 12.3977 11.4598 11.8523 11.4598 11.2131C11.4598 10.6506 11.5706 10.1946 11.7922 9.84517C12.0138 9.49148 12.31 9.21449 12.6807 9.0142C13.0515 8.81392 13.4605 8.66477 13.908 8.56676C14.3597 8.46449 14.8135 8.38352 15.2695 8.32386C15.8661 8.24716 16.3497 8.18963 16.7205 8.15128C17.0955 8.10866 17.3682 8.03835 17.5387 7.94034C17.7134 7.84233 17.8007 7.67187 17.8007 7.42898V7.37784C17.8007 6.74716 17.6282 6.2571 17.283 5.90767C16.9421 5.55824 16.4243 5.38352 15.7297 5.38352C15.0095 5.38352 14.4449 5.54119 14.0358 5.85653C13.6267 6.17187 13.3391 6.50852 13.1729 6.86648L11.7411 6.35511C11.9968 5.75852 12.3377 5.29403 12.7638 4.96165C13.1942 4.625 13.663 4.39062 14.1701 4.25852C14.6814 4.12216 15.1843 4.05398 15.6786 4.05398C15.9939 4.05398 16.3561 4.09233 16.7652 4.16903C17.1786 4.24148 17.577 4.39276 17.9605 4.62287C18.3483 4.85298 18.6701 5.20028 18.9257 5.66477C19.1814 6.12926 19.3093 6.75142 19.3093 7.53125V14H17.8007V12.6705H17.724C17.6218 12.8835 17.4513 13.1115 17.2127 13.3544C16.974 13.5973 16.6566 13.804 16.2603 13.9744C15.864 14.1449 15.3803 14.2301 14.8093 14.2301ZM15.0394 12.875C15.636 12.875 16.1388 12.7578 16.5479 12.5234C16.9613 12.2891 17.2723 11.9865 17.4811 11.6158C17.6942 11.245 17.8007 10.8551 17.8007 10.446V9.06534C17.7368 9.14205 17.5962 9.21236 17.3789 9.27628C17.1658 9.33594 16.9186 9.3892 16.6374 9.43608C16.3604 9.47869 16.0898 9.51705 15.8256 9.55114C15.5657 9.58097 15.3547 9.60653 15.1928 9.62784C14.8007 9.67898 14.4343 9.76207 14.0934 9.87713C13.7567 9.98793 13.484 10.1562 13.2752 10.3821C13.0706 10.6037 12.9684 10.9062 12.9684 11.2898C12.9684 11.8139 13.1622 12.2102 13.55 12.4787C13.9421 12.7429 14.4385 12.875 15.0394 12.875ZM25.6913 14.2045C24.7708 14.2045 23.9782 13.9872 23.3134 13.5526C22.6487 13.1179 22.1373 12.5192 21.7793 11.7564C21.4214 10.9936 21.2424 10.1222 21.2424 9.14205C21.2424 8.14489 21.4256 7.26491 21.7921 6.50213C22.1629 5.73509 22.6785 5.13636 23.339 4.70597C24.0038 4.27131 24.7793 4.05398 25.6657 4.05398C26.356 4.05398 26.9782 4.18182 27.5322 4.4375C28.0862 4.69318 28.54 5.05114 28.8937 5.51136C29.2474 5.97159 29.4668 6.50852 29.5521 7.12216H28.0435C27.9285 6.67472 27.6728 6.27841 27.2765 5.93324C26.8845 5.58381 26.356 5.40909 25.6913 5.40909C25.1032 5.40909 24.5876 5.5625 24.1444 5.86932C23.7055 6.17187 23.3624 6.60014 23.1153 7.15412C22.8724 7.70383 22.7509 8.34943 22.7509 9.09091C22.7509 9.84943 22.8703 10.5099 23.1089 11.0724C23.3518 11.6349 23.6927 12.0717 24.1316 12.3828C24.5748 12.6939 25.0947 12.8494 25.6913 12.8494C26.0833 12.8494 26.4391 12.7812 26.7587 12.6449C27.0783 12.5085 27.3489 12.3125 27.5705 12.0568C27.7921 11.8011 27.9498 11.4943 28.0435 11.1364H29.5521C29.4668 11.7159 29.2559 12.2379 28.9193 12.7024C28.5869 13.1626 28.1458 13.5291 27.5961 13.8018C27.0506 14.0703 26.4157 14.2045 25.6913 14.2045ZM32.8036 10.4205L32.778 8.55398H33.0848L37.3803 4.18182H39.2468L34.6701 8.80966H34.5422L32.8036 10.4205ZM31.3973 14V0.909091H32.9058V14H31.3973ZM37.636 14L33.8007 9.14205L34.8746 8.09375L39.5536 14H37.636Z" fill="black"/>
</svg>
