<svg width="41" height="41" viewBox="0 0 41 41" fill="none" xmlns="http://www.w3.org/2000/svg">
<g clip-path="url(#clip0_38_160)">
<path d="M33.2489 3.98233C34.5876 5.03193 35.5101 6.72728 35.8873 8.50258C35.933 8.51703 35.9775 8.53485 36.0205 8.55588L40.2128 10.4952C40.4471 10.6028 40.6458 10.7752 40.7853 10.9921C40.9247 11.2089 40.9993 11.4612 41 11.719V37.0714C40.9985 37.282 40.9482 37.4894 40.8531 37.6773C40.758 37.8652 40.6207 38.0285 40.4519 38.1544C40.283 38.2803 40.0873 38.3654 39.8801 38.403C39.6729 38.4406 39.4598 38.4297 39.2575 38.3711L27.636 35.0911L13.819 38.9C13.5698 38.9684 13.3063 38.9656 13.0585 38.8918L0.9717 35.294C0.692327 35.212 0.446879 35.042 0.27182 34.8093C0.096762 34.5766 0.0014343 34.2937 0 34.0025L0 8.19508C0 7.29308 0.8774 6.64528 1.75275 6.89948L13.4418 10.3045L19.3827 8.48618C19.4645 8.46204 19.5482 8.44489 19.6328 8.43493C19.8624 7.09013 20.5041 5.79863 21.5804 4.53993C22.8575 3.04343 25.0981 2.16603 27.2814 2.06148C29.5466 1.95283 31.2768 2.43663 33.2469 3.98028L33.2489 3.98233ZM2.73265 10.0052V32.996L12.7162 35.9664V12.9101L2.73265 10.0052ZM19.5611 11.2639L15.4488 12.5206V35.6425L25.832 32.7848V26.0301C25.832 25.2839 26.445 24.6791 27.1994 24.6791C27.9538 24.6791 28.5647 25.2839 28.5647 26.0321V32.545L38.2673 35.2817V12.578L35.9714 11.512C35.9324 11.7375 35.8832 11.9589 35.8217 12.1741C35.3759 13.746 34.6281 15.2159 33.62 16.5017L28.5422 22.8423C28.4085 23.009 28.2377 23.1423 28.0435 23.2314C27.8492 23.3205 27.6369 23.3631 27.4233 23.3557C27.2097 23.3484 27.0008 23.2913 26.8132 23.189C26.6256 23.0867 26.4644 22.942 26.3425 22.7665L21.5967 15.8928C20.8137 14.7981 20.2642 13.8223 19.9547 12.949C19.7604 12.404 19.6284 11.8387 19.5611 11.2639ZM27.4126 4.76338C25.9243 4.83513 24.395 5.43373 23.6672 6.28448C22.7919 7.30948 22.3614 8.26888 22.2753 9.24058C22.1728 10.4111 22.2425 11.2373 22.5336 12.0552C22.7488 12.66 23.1773 13.4267 23.8394 14.3512L27.552 19.7263L31.4675 14.8371C32.2574 13.8276 32.843 12.6738 33.1915 11.4402C33.6835 9.71823 32.9414 7.18853 31.5515 6.10203C30.1268 4.98478 29.0506 4.68343 27.4146 4.76338H27.4126ZM27.6955 6.19223C29.9587 6.19223 31.7955 8.00648 31.7955 10.2451C31.7925 10.7804 31.6841 11.31 31.4765 11.8034C31.2688 12.2969 30.9659 12.7446 30.5852 13.121C30.2044 13.4973 29.7533 13.795 29.2574 13.9969C28.7616 14.1989 28.2309 14.3012 27.6955 14.2979C25.4323 14.2979 23.5955 12.4837 23.5955 10.2451C23.5955 8.00648 25.4323 6.19223 27.6955 6.19223ZM27.6955 8.89413C27.517 8.89305 27.3401 8.92713 27.1747 8.99444C27.0094 9.06175 26.859 9.16096 26.732 9.28641C26.6051 9.41186 26.504 9.56108 26.4347 9.72557C26.3654 9.89006 26.3292 10.0666 26.3281 10.2451C26.3281 10.9913 26.9411 11.596 27.6955 11.596C27.874 11.5968 28.0509 11.5625 28.2161 11.4949C28.3813 11.4274 28.5316 11.3279 28.6584 11.2023C28.7851 11.0767 28.8859 10.9273 28.955 10.7627C29.024 10.5981 29.06 10.4215 29.0608 10.243C29.0581 9.88327 28.9129 9.53926 28.6569 9.28641C28.401 9.03356 28.0553 8.89249 27.6955 8.89413Z" fill="black"/>
</g>
<defs>
<clipPath id="clip0_38_160">
<rect width="41" height="41" fill="white"/>
</clipPath>
</defs>
</svg>
