<svg width="270" height="44" viewBox="0 0 270 44" fill="none" xmlns="http://www.w3.org/2000/svg">
<path d="M11.418 42.9414L0.666016 43C0.470703 43 0.373047 42.9023 0.373047 42.707L0.490234 1.48633C0.490234 1.33008 0.568359 1.25195 0.724609 1.25195L11.9453 1.19336C14.1719 1.13477 16.1836 1.64258 17.9805 2.7168C19.7969 3.79102 21.2422 5.24609 22.3164 7.08203C23.4102 8.89844 23.957 10.9102 23.957 13.1172V30.3438C23.957 32.6484 23.4004 34.7578 22.2871 36.6719C21.1543 38.5664 19.6504 40.0801 17.7754 41.2129C15.9004 42.3262 13.7812 42.9023 11.418 42.9414ZM11.9453 8.37109L7.75586 8.42969L7.69727 35.6172H11.418C12.9023 35.6172 14.1523 35.0996 15.168 34.0645C16.1836 33.0293 16.6914 31.7891 16.6914 30.3438V13.0586C16.6914 11.7891 16.2227 10.6855 15.2852 9.74805C14.3477 8.79102 13.2344 8.33203 11.9453 8.37109ZM39.7188 43.5859C37.6094 43.5859 35.6562 43.0391 33.8594 41.9453C32.0625 40.8516 30.627 39.3867 29.5527 37.5508C28.498 35.6953 27.9707 33.6738 27.9707 31.4863L28.0879 1.48633C28.0879 1.33008 28.166 1.25195 28.3223 1.25195H35.0605C35.2168 1.25195 35.2949 1.33008 35.2949 1.48633V31.4863C35.2949 32.834 35.7246 33.9863 36.584 34.9434C37.4434 35.8809 38.4883 36.3496 39.7188 36.3496C41.0078 36.3496 42.082 35.8809 42.9414 34.9434C43.8008 33.9863 44.2305 32.834 44.2305 31.4863V1.48633C44.2305 1.33008 44.3086 1.25195 44.4648 1.25195H51.2031C51.3594 1.25195 51.4375 1.33008 51.4375 1.48633L51.5547 31.4863C51.5547 33.6934 51.0273 35.7246 49.9727 37.5801C48.8984 39.416 47.4727 40.8809 45.6953 41.9746C43.918 43.0488 41.9258 43.5859 39.7188 43.5859ZM67.2578 43H56.5059C56.3496 43 56.2715 42.9023 56.2715 42.707L56.3887 1.48633C56.3887 1.33008 56.4668 1.25195 56.623 1.25195H68.166C70.4121 1.25195 72.4531 1.79883 74.2891 2.89258C76.0859 3.98633 77.502 5.44141 78.5371 7.25781C79.5723 9.05469 80.0898 11.0078 80.0898 13.1172C80.0898 14.8359 79.6992 16.4375 78.918 17.9219C78.1367 19.4062 77.209 20.6074 76.1348 21.5254C77.2871 22.6777 78.1855 24.0156 78.8301 25.5391C79.4746 27.0625 79.7969 28.6641 79.7969 30.3438C79.7969 32.668 79.2402 34.7871 78.127 36.7012C76.9941 38.6152 75.4805 40.1484 73.5859 41.3008C71.6914 42.4336 69.582 43 67.2578 43ZM68.166 8.37109H63.5957V17.8047H68.166C69.5527 17.8047 70.6758 17.3164 71.5352 16.3398C72.3945 15.3438 72.8242 14.2695 72.8242 13.1172C72.8242 11.8477 72.3652 10.7441 71.4473 9.80664C70.5293 8.84961 69.4355 8.37109 68.166 8.37109ZM67.2578 25.0703H63.5957L63.5371 35.6758H67.2578C68.7031 35.6758 69.9434 35.1484 70.9785 34.0938C72.0137 33.0391 72.5312 31.7891 72.5312 30.3438C72.5312 28.8984 72.0137 27.6582 70.9785 26.623C69.9434 25.5879 68.7031 25.0703 67.2578 25.0703Z" fill="#4B2E83"/>
<path d="M106.721 43H99.9824C99.7871 43 99.6895 42.9023 99.6895 42.707L99.8066 1.48633C99.8066 1.33008 99.8848 1.25195 100.041 1.25195H119.26C119.455 1.25195 119.553 1.33008 119.553 1.48633V8.25391C119.553 8.41016 119.475 8.48828 119.318 8.48828H107.014V17.8047H119.318C119.475 17.8047 119.553 17.9023 119.553 18.0977L119.611 24.8945C119.611 25.0508 119.514 25.1289 119.318 25.1289H107.014V42.707C107.014 42.9023 106.916 43 106.721 43ZM131.975 43H125.178C125.021 43 124.943 42.9023 124.943 42.707L125.061 1.48633C125.061 1.33008 125.139 1.25195 125.295 1.25195H137.424C139.592 1.25195 141.584 1.7793 143.4 2.83398C145.217 3.88867 146.662 5.30469 147.736 7.08203C148.83 8.85938 149.377 10.8711 149.377 13.1172C149.377 14.582 149.152 15.9102 148.703 17.1016C148.254 18.293 147.727 19.2988 147.121 20.1191C146.535 20.9395 145.998 21.5449 145.51 21.9355C147.678 24.3379 148.762 27.1602 148.762 30.4023L148.82 42.707C148.82 42.9023 148.723 43 148.527 43H141.73C141.574 43 141.496 42.9414 141.496 42.8242V30.4023C141.496 28.957 140.988 27.707 139.973 26.6523C138.957 25.5977 137.707 25.0703 136.223 25.0703H132.268L132.209 42.707C132.209 42.9023 132.131 43 131.975 43ZM137.424 8.42969H132.268V17.8633H137.424C138.654 17.8633 139.748 17.4043 140.705 16.4863C141.682 15.5684 142.17 14.4453 142.17 13.1172C142.17 11.8477 141.701 10.7539 140.764 9.83594C139.826 8.89844 138.713 8.42969 137.424 8.42969ZM160.979 43H154.182C153.986 43 153.889 42.9023 153.889 42.707L153.947 1.48633C153.947 1.33008 154.025 1.25195 154.182 1.25195H160.92C161.076 1.25195 161.154 1.33008 161.154 1.48633L161.213 42.707C161.213 42.9023 161.135 43 160.979 43ZM186.115 43H166.721C166.564 43 166.486 42.9023 166.486 42.707L166.545 1.48633C166.545 1.33008 166.623 1.25195 166.779 1.25195H186.057C186.213 1.25195 186.291 1.34961 186.291 1.54492V8.25391C186.291 8.41016 186.213 8.48828 186.057 8.48828H173.752V17.8633H186.057C186.213 17.8633 186.291 17.9414 186.291 18.0977L186.35 24.8945C186.35 25.0508 186.271 25.1289 186.115 25.1289H173.752V35.6172H186.115C186.271 35.6172 186.35 35.7148 186.35 35.9102V42.7656C186.35 42.9219 186.271 43 186.115 43ZM198.215 43H192.209C191.896 43 191.74 42.8633 191.74 42.5898L191.682 1.7207C191.682 1.4082 191.838 1.25195 192.15 1.25195H197.57L207.707 24.8945L207.414 1.7207C207.414 1.4082 207.59 1.25195 207.941 1.25195H213.889C214.123 1.25195 214.24 1.4082 214.24 1.7207L214.299 42.6484C214.299 42.8828 214.201 43 214.006 43H208.732L198.332 20.9102L198.771 42.5312C198.771 42.8438 198.586 43 198.215 43ZM230.559 42.9414L219.807 43C219.611 43 219.514 42.9023 219.514 42.707L219.631 1.48633C219.631 1.33008 219.709 1.25195 219.865 1.25195L231.086 1.19336C233.312 1.13477 235.324 1.64258 237.121 2.7168C238.938 3.79102 240.383 5.24609 241.457 7.08203C242.551 8.89844 243.098 10.9102 243.098 13.1172V30.3438C243.098 32.6484 242.541 34.7578 241.428 36.6719C240.295 38.5664 238.791 40.0801 236.916 41.2129C235.041 42.3262 232.922 42.9023 230.559 42.9414ZM231.086 8.37109L226.896 8.42969L226.838 35.6172H230.559C232.043 35.6172 233.293 35.0996 234.309 34.0645C235.324 33.0293 235.832 31.7891 235.832 30.3438V13.0586C235.832 11.7891 235.363 10.6855 234.426 9.74805C233.488 8.79102 232.375 8.33203 231.086 8.37109ZM258.01 43.5859C255.881 43.5859 253.918 43.0391 252.121 41.9453C250.344 40.8516 248.918 39.3965 247.844 37.5801C246.789 35.7441 246.262 33.7324 246.262 31.5449V28.791C246.262 28.5762 246.359 28.4688 246.555 28.4688H253.293C253.449 28.4688 253.527 28.5762 253.527 28.791V31.5449C253.527 32.8535 253.967 33.9863 254.846 34.9434C255.725 35.8809 256.779 36.3496 258.01 36.3496C259.26 36.3496 260.324 35.8711 261.203 34.9141C262.082 33.9375 262.521 32.8145 262.521 31.5449C262.521 30.0801 261.564 28.8008 259.65 27.707C259.338 27.5117 258.928 27.2773 258.42 27.0039C257.932 26.7109 257.346 26.3789 256.662 26.0078C255.979 25.6367 255.314 25.2754 254.67 24.9238C254.025 24.5527 253.4 24.2012 252.795 23.8691C250.607 22.5801 248.977 20.9688 247.902 19.0352C246.848 17.082 246.32 14.8945 246.32 12.4727C246.32 10.2461 246.867 8.23438 247.961 6.4375C249.055 4.66016 250.48 3.25391 252.238 2.21875C254.016 1.16406 255.939 0.636719 258.01 0.636719C260.139 0.636719 262.092 1.16406 263.869 2.21875C265.646 3.29297 267.062 4.71875 268.117 6.49609C269.191 8.27344 269.729 10.2656 269.729 12.4727V17.3945C269.729 17.5508 269.65 17.6289 269.494 17.6289H262.756C262.6 17.6289 262.521 17.5508 262.521 17.3945L262.463 12.4727C262.463 11.0664 262.023 9.92383 261.145 9.04492C260.266 8.16602 259.221 7.72656 258.01 7.72656C256.779 7.72656 255.725 8.19531 254.846 9.13281C253.967 10.0703 253.527 11.1836 253.527 12.4727C253.527 13.7812 253.801 14.875 254.348 15.7539C254.914 16.6328 255.939 17.4727 257.424 18.2734C257.58 18.3516 257.941 18.5469 258.508 18.8594C259.074 19.1719 259.699 19.5234 260.383 19.9141C261.086 20.2852 261.721 20.627 262.287 20.9395C262.854 21.2324 263.195 21.4082 263.312 21.4668C265.305 22.5801 266.877 23.9473 268.029 25.5684C269.201 27.1895 269.787 29.1816 269.787 31.5449C269.787 33.8301 269.26 35.8809 268.205 37.6973C267.131 39.5137 265.705 40.9492 263.928 42.0039C262.15 43.0586 260.178 43.5859 258.01 43.5859Z" fill="#85754D"/>
</svg>
