<svg width="176" height="99" viewBox="0 0 176 99" fill="none" xmlns="http://www.w3.org/2000/svg">
<path d="M12.9091 37H0.586648V0.636363H13.1577C16.768 0.636363 19.8693 1.36435 22.4616 2.82031C25.0658 4.26444 27.0663 6.34185 28.4631 9.05256C29.8598 11.7633 30.5582 15.0066 30.5582 18.7827C30.5582 22.5705 29.8539 25.8258 28.4453 28.5483C27.0485 31.2708 25.0303 33.3601 22.3906 34.8161C19.7628 36.272 16.6023 37 12.9091 37ZM7.17401 31.3004H12.5895C15.1226 31.3004 17.2356 30.8388 18.9283 29.9155C20.621 28.9804 21.8935 27.5895 22.7457 25.7429C23.598 23.8845 24.0241 21.5644 24.0241 18.7827C24.0241 16.0009 23.598 13.6927 22.7457 11.858C21.8935 10.0114 20.6328 8.63234 18.9638 7.72088C17.3066 6.79759 15.2469 6.33594 12.7848 6.33594H7.17401V31.3004ZM53.9158 25.5298V9.72727H60.3434V37H54.1112V32.1527H53.8271C53.2115 33.6797 52.1995 34.9285 50.7908 35.8991C49.3941 36.8698 47.6718 37.3551 45.6239 37.3551C43.8365 37.3551 42.2563 36.9586 40.8832 36.1655C39.5219 35.3606 38.4566 34.1946 37.6871 32.6676C36.9177 31.1288 36.533 29.2704 36.533 27.0923V9.72727H42.9606V26.098C42.9606 27.8262 43.4341 29.1993 44.381 30.2173C45.328 31.2353 46.5709 31.7443 48.1097 31.7443C49.0567 31.7443 49.9741 31.5135 50.8619 31.0518C51.7496 30.5902 52.4776 29.9036 53.0458 28.9922C53.6258 28.0689 53.9158 26.9148 53.9158 25.5298ZM67.237 37V0.636363H73.6646V14.2372H73.9309C74.2624 13.5743 74.7299 12.87 75.3336 12.1243C75.9373 11.3667 76.7541 10.7216 77.7839 10.1889C78.8137 9.64441 80.1277 9.37216 81.7257 9.37216C83.8327 9.37216 85.7325 9.91075 87.4252 10.9879C89.1298 12.0533 90.4792 13.6335 91.4735 15.7287C92.4797 17.812 92.9828 20.3688 92.9828 23.3991C92.9828 26.3939 92.4915 28.9389 91.5091 31.0341C90.5266 33.1293 89.189 34.7273 87.4963 35.8281C85.8036 36.929 83.8859 37.4794 81.7434 37.4794C80.1809 37.4794 78.8848 37.219 77.8549 36.6982C76.8251 36.1773 75.9965 35.55 75.3691 34.8161C74.7536 34.0703 74.2742 33.366 73.9309 32.7031H73.5581V37H67.237ZM73.5403 23.3636C73.5403 25.1274 73.7889 26.6721 74.286 27.9979C74.795 29.3236 75.523 30.3594 76.47 31.1051C77.4288 31.839 78.5888 32.206 79.9501 32.206C81.3706 32.206 82.5602 31.8272 83.519 31.0696C84.4778 30.3002 85.1999 29.2526 85.6852 27.9268C86.1824 26.5893 86.4309 25.0682 86.4309 23.3636C86.4309 21.6709 86.1883 20.1676 85.7029 18.8537C85.2176 17.5398 84.4956 16.5099 83.5368 15.7642C82.5779 15.0185 81.3824 14.6456 79.9501 14.6456C78.577 14.6456 77.411 15.0066 76.4522 15.7287C75.4934 16.4508 74.7654 17.4628 74.2683 18.7649C73.783 20.067 73.5403 21.5999 73.5403 23.3636Z" fill="#4B2E83"/>
<path d="M0.586648 98V61.6364H23.8821V67.1584H7.17401V77.0305H22.2841V82.5526H7.17401V98H0.586648ZM29.2088 98V70.7273H35.4411V75.2727H35.7251C36.2223 73.6984 37.0746 72.4851 38.282 71.6328C39.5012 70.7687 40.892 70.3366 42.4545 70.3366C42.8097 70.3366 43.2062 70.3544 43.6442 70.3899C44.094 70.4136 44.4669 70.455 44.7628 70.5142V76.4268C44.4905 76.3321 44.0585 76.2493 43.4666 76.1783C42.8866 76.0954 42.3243 76.054 41.7798 76.054C40.608 76.054 39.5545 76.3085 38.6193 76.8175C37.696 77.3146 36.968 78.0071 36.4354 78.8949C35.9027 79.7827 35.6364 80.8066 35.6364 81.9666V98H29.2088ZM49.033 98V70.7273H55.4606V98H49.033ZM52.2646 66.8565C51.2466 66.8565 50.3706 66.5192 49.6367 65.8445C48.9028 65.1579 48.5359 64.3352 48.5359 63.3764C48.5359 62.4058 48.9028 61.5831 49.6367 60.9084C50.3706 60.2218 51.2466 59.8786 52.2646 59.8786C53.2944 59.8786 54.1703 60.2218 54.8924 60.9084C55.6263 61.5831 55.9933 62.4058 55.9933 63.3764C55.9933 64.3352 55.6263 65.1579 54.8924 65.8445C54.1703 66.5192 53.2944 66.8565 52.2646 66.8565ZM74.144 98.5327C71.4096 98.5327 69.0481 97.9645 67.0595 96.8281C65.0827 95.6799 63.5616 94.0582 62.4963 91.9631C61.4309 89.8561 60.8983 87.3762 60.8983 84.5234C60.8983 81.718 61.4309 79.2559 62.4963 77.1371C63.5734 75.0064 65.0768 73.3492 67.0062 72.1655C68.9357 70.9699 71.2025 70.3722 73.8066 70.3722C75.4875 70.3722 77.0737 70.6444 78.5652 71.1889C80.0685 71.7216 81.3942 72.5502 82.5424 73.6747C83.7025 74.7992 84.6139 76.2315 85.2768 77.9716C85.9397 79.6998 86.2711 81.7595 86.2711 84.1506V86.1214H63.9167V81.7891H80.1099C80.0981 80.558 79.8317 79.4631 79.3109 78.5043C78.7901 77.5336 78.0621 76.7701 77.127 76.2138C76.2037 75.6574 75.1265 75.3793 73.8954 75.3793C72.5815 75.3793 71.4274 75.6989 70.4331 76.3381C69.4387 76.9654 68.6634 77.794 68.1071 78.8239C67.5626 79.8419 67.2844 80.9605 67.2725 82.1797V85.9616C67.2725 87.5478 67.5626 88.9091 68.1426 90.0455C68.7226 91.17 69.5334 92.0341 70.5751 92.6378C71.6168 93.2296 72.836 93.5256 74.2328 93.5256C75.1679 93.5256 76.0143 93.3954 76.7718 93.1349C77.5294 92.8627 78.1864 92.4661 78.7427 91.9453C79.2991 91.4245 79.7193 90.7794 80.0034 90.0099L86.0048 90.6847C85.626 92.2708 84.9039 93.6558 83.8386 94.8395C82.7851 96.0114 81.4357 96.9228 79.7903 97.5739C78.1449 98.2131 76.2628 98.5327 74.144 98.5327ZM98.1364 82.0199V98H91.7088V70.7273H97.8523V75.3615H98.1719C98.7992 73.8345 99.7995 72.6212 101.173 71.7216C102.558 70.822 104.268 70.3722 106.304 70.3722C108.186 70.3722 109.826 70.7746 111.222 71.5795C112.631 72.3845 113.72 73.5504 114.489 75.0774C115.271 76.6044 115.655 78.4569 115.643 80.6349V98H109.216V81.6293C109.216 79.8063 108.742 78.38 107.795 77.3501C106.86 76.3203 105.564 75.8054 103.907 75.8054C102.782 75.8054 101.782 76.054 100.906 76.5511C100.042 77.0365 99.3615 77.7408 98.8643 78.6641C98.379 79.5874 98.1364 80.706 98.1364 82.0199ZM132.298 98.4794C130.156 98.4794 128.238 97.929 126.545 96.8281C124.853 95.7273 123.515 94.1293 122.533 92.0341C121.55 89.9389 121.059 87.3939 121.059 84.3991C121.059 81.3688 121.556 78.812 122.55 76.7287C123.557 74.6335 124.912 73.0533 126.616 71.9879C128.321 70.9107 130.221 70.3722 132.316 70.3722C133.914 70.3722 135.228 70.6444 136.258 71.1889C137.288 71.7216 138.104 72.3667 138.708 73.1243C139.312 73.87 139.779 74.5743 140.111 75.2372H140.377V61.6364H146.822V98H140.501V93.7031H140.111C139.779 94.366 139.3 95.0703 138.673 95.8161C138.045 96.55 137.217 97.1773 136.187 97.6982C135.157 98.219 133.861 98.4794 132.298 98.4794ZM134.092 93.206C135.453 93.206 136.613 92.839 137.572 92.1051C138.531 91.3594 139.259 90.3236 139.756 88.9979C140.253 87.6721 140.501 86.1274 140.501 84.3636C140.501 82.5999 140.253 81.067 139.756 79.7649C139.27 78.4628 138.548 77.4508 137.589 76.7287C136.643 76.0066 135.477 75.6456 134.092 75.6456C132.659 75.6456 131.464 76.0185 130.505 76.7642C129.546 77.5099 128.824 78.5398 128.339 79.8537C127.853 81.1676 127.611 82.6709 127.611 84.3636C127.611 86.0682 127.853 87.5893 128.339 88.9268C128.836 90.2526 129.564 91.3002 130.523 92.0696C131.493 92.8272 132.683 93.206 134.092 93.206ZM175.227 77.9361L169.368 78.5753C169.202 77.9834 168.912 77.4271 168.498 76.9062C168.095 76.3854 167.551 75.9652 166.864 75.6456C166.178 75.326 165.337 75.1662 164.343 75.1662C163.005 75.1662 161.881 75.4562 160.969 76.0362C160.07 76.6162 159.626 77.3679 159.638 78.2912C159.626 79.0843 159.916 79.7294 160.508 80.2266C161.111 80.7237 162.106 81.1321 163.491 81.4517L168.143 82.446C170.723 83.0024 172.641 83.8842 173.895 85.0916C175.162 86.299 175.801 87.8793 175.813 89.8324C175.801 91.5488 175.298 93.0639 174.304 94.3778C173.321 95.6799 171.954 96.6979 170.202 97.4318C168.45 98.1657 166.438 98.5327 164.165 98.5327C160.827 98.5327 158.14 97.8343 156.104 96.4375C154.068 95.0289 152.855 93.0698 152.464 90.5604L158.732 89.9567C159.016 91.1877 159.62 92.117 160.543 92.7443C161.466 93.3717 162.668 93.6854 164.148 93.6854C165.675 93.6854 166.9 93.3717 167.823 92.7443C168.758 92.117 169.226 91.3416 169.226 90.4183C169.226 89.6371 168.924 88.992 168.32 88.483C167.728 87.974 166.805 87.5833 165.55 87.3111L160.898 86.3345C158.282 85.79 156.347 84.8726 155.092 83.5824C153.837 82.2803 153.216 80.6349 153.228 78.6463C153.216 76.9654 153.672 75.5095 154.595 74.2784C155.53 73.0355 156.826 72.0767 158.483 71.402C160.153 70.7154 162.076 70.3722 164.254 70.3722C167.45 70.3722 169.965 71.0528 171.8 72.4141C173.647 73.7753 174.789 75.616 175.227 77.9361Z" fill="#85754D"/>
</svg>
