<svg width="239" height="117" viewBox="0 0 239 117" fill="none" xmlns="http://www.w3.org/2000/svg">
<path d="M140.13 75.2106C140.231 79.1335 147.795 81.8581 144.716 85.7571C137.919 86.7134 141.01 91.2275 137.287 92.7638C143.869 103.505 154.492 104.846 164.593 98.1202C167.531 96.3643 170.84 95.6203 173.553 96.3524C175.098 98.8296 172.799 99.1216 171.334 99.4804C164.23 100.897 157.069 111.9 133.03 101.42C129.827 100.069 130.313 96.0935 131.7 92.9681C129.035 91.8306 128.875 88.864 128.483 85.051C125.869 76.4551 134.453 77.198 140.13 75.2106ZM177.922 56.5436C180.854 56.6094 185.169 59.3918 188.02 60.7766C183.997 63.1482 182.399 65.9701 177.922 65.0887C173.445 64.2076 173.526 61.3182 175.288 57.9615C175.84 56.9088 176.775 56.518 177.922 56.5436ZM159.007 0.00306473C164.477 0.254432 169.182 14.9384 174.761 25.3464C190.799 32.0307 194.813 23.3636 200.05 24.789C208.969 6.57038 222.213 -11.6953 225.792 10.0139C225.001 26.4222 231.536 27.7741 230.958 51.1863C230.958 51.1863 242.616 74.6976 237.86 95.5017C234.508 110.161 222.724 115.694 214.809 117C213.99 111.004 204.597 97.4825 207.166 94.3273C213.576 86.4547 211.565 67.1691 195.32 65.1758C193.101 48.953 182.087 52.0067 183.213 47.3141C186.744 32.6132 171.51 39.4755 168.954 44.2926C164.36 51.9312 161.13 59.4389 157.375 62.9974C152.6 67.5231 146.122 69.9952 145.743 70.1378C147.104 69.2854 158.783 59.385 162.2 51.4328C164.255 46.65 164.049 35.8755 164.049 35.8755C158.123 34.9466 155.732 44.9373 149.297 54.0014C149.03 54.6542 149.077 55.1769 149.297 55.6124C150.184 55.1433 150.493 53.9666 151.558 53.8254C152.528 53.8254 153.315 55.2047 153.315 56.9056C153.315 58.6064 152.035 59.2136 150.271 60.0088C147.813 64.3445 145.258 65.9377 142.799 67.024L150.732 43.7949C151.026 29.2472 149.491 14.6987 157.902 0.150686C158.259 0.0365763 158.633 -0.0134008 159.007 0.00306473ZM158.931 4.64125C158.492 4.63371 158.086 4.93078 157.727 5.60719C153.336 13.8783 153.174 33.2919 153.204 40.1551C155.289 35.4002 158.413 27.4033 168.263 24.965C168.263 24.965 162.509 4.70364 158.931 4.64125ZM217.931 6.48629C215.929 6.47783 213.655 7.65309 211.016 12.475C206.794 20.1902 203.764 25.3226 202.293 27.9791C199.283 33.4169 203.611 29.1171 204.966 43.0692C205.234 45.8242 206.272 47.1491 208.307 48.5474C212.712 44.1357 215.818 36.4795 217.963 27.377C222.168 33.6353 215.242 43.3125 215.119 51.5882C219.791 52.6584 222.82 52.2841 224.549 51.7066C226.716 50.6207 227.431 37.3734 223.41 27.0897C220.061 18.524 221.653 7.6323 220.164 7.15767C219.14 6.83089 219.132 6.49132 217.931 6.48629Z" fill="#E2D1B0"/>
<path d="M98.8704 75.2106C98.7687 79.1335 91.2048 81.8581 94.2841 85.7571C101.081 86.7134 97.9895 91.2275 101.713 92.7638C95.1308 103.505 84.5079 104.846 74.4071 98.1202C71.4685 96.3643 68.1596 95.6203 65.4471 96.3524C63.9019 98.8296 66.2007 99.1216 67.6664 99.4804C74.7699 100.897 81.9311 111.9 105.97 101.42C109.173 100.069 108.687 96.0935 107.3 92.9681C109.965 91.8306 110.125 88.864 110.517 85.051C113.131 76.4551 104.547 77.198 98.8704 75.2106ZM61.0776 56.5436C58.1463 56.6094 53.8311 59.3918 50.9799 60.7766C55.0032 63.1482 56.6013 65.9701 61.0776 65.0887C65.5554 64.2076 65.4738 61.3182 63.7121 57.9615C63.1596 56.9088 62.2246 56.518 61.0776 56.5436ZM79.9929 0.00306473C74.5231 0.254432 69.8179 14.9384 64.2391 25.3464C48.2005 32.0307 44.1874 23.3636 38.9505 24.789C30.0306 6.57038 16.7866 -11.6953 13.208 10.0139C13.9993 26.4222 7.46361 27.7741 8.04169 51.1863C8.04169 51.1863 -3.61557 74.6976 1.14047 95.5017C4.49154 110.161 16.2758 115.694 24.1909 117C25.01 111.004 34.4026 97.4825 31.8337 94.3273C25.4239 86.4547 27.4348 67.1691 43.68 65.1758C45.8993 48.953 56.9133 52.0067 55.7865 47.3141C52.256 32.6132 67.4896 39.4755 70.0462 44.2926C74.6399 51.9312 77.8699 59.4389 81.6248 62.9974C86.4002 67.5231 92.878 69.9952 93.2572 70.1378C91.8963 69.2854 80.2171 59.385 76.7999 51.4328C74.7448 46.65 74.9514 35.8755 74.9514 35.8755C80.877 34.9466 83.2678 44.9373 89.7034 54.0014C89.9698 54.6542 89.9228 55.1769 89.7034 55.6124C88.8156 55.1433 88.5071 53.9666 87.4417 53.8254C86.4716 53.8254 85.6851 55.2047 85.6851 56.9056C85.6851 58.6064 86.9653 59.2136 88.7288 60.0088C91.1873 64.3445 93.7425 65.9377 96.201 67.024L88.2679 43.7949C87.9737 29.2472 89.5093 14.6987 81.0978 0.150686C80.7411 0.0365763 80.367 -0.0134008 79.9929 0.00306473ZM80.0689 4.64125C80.5083 4.63371 80.9142 4.93078 81.2734 5.60719C85.6639 13.8783 85.8258 33.2919 85.7957 40.1551C83.7107 35.4002 80.5865 27.4033 70.737 24.965C70.737 24.965 76.4907 4.70364 80.0689 4.64125ZM21.069 6.48629C23.0705 6.47783 25.3453 7.65309 27.9842 12.475C32.2064 20.1902 35.2361 25.3226 36.7068 27.9791C39.7171 33.4169 35.3887 29.1171 34.0337 43.0692C33.7659 45.8242 32.7279 47.1491 30.6928 48.5474C26.2882 44.1357 23.1816 36.4795 21.0369 27.377C16.8318 33.6353 23.7581 43.3125 23.8812 51.5882C19.2091 52.6584 16.1798 52.2841 14.4513 51.7066C12.2837 50.6207 11.5695 37.3734 15.5901 27.0897C18.9391 18.524 17.3472 7.6323 18.836 7.15767C19.8604 6.83089 19.8679 6.49132 21.069 6.48629Z" fill="#C5B3E6"/>
</svg>
