<svg width="27" height="13" viewBox="0 0 27 13" fill="none" xmlns="http://www.w3.org/2000/svg">
<path d="M1.92285 3.20588C1.92285 2.49782 2.49685 1.92383 3.2049 1.92383H20.8331C21.5412 1.92383 22.1152 2.49782 22.1152 3.20588V9.29562C22.1152 10.0037 21.5412 10.5777 20.8331 10.5777H3.2049C2.49685 10.5777 1.92285 10.0037 1.92285 9.29562V3.20588Z" fill="black"/>
<path opacity="0.4" fill-rule="evenodd" clip-rule="evenodd" d="M3.20513 0.961538H20.8333C22.0724 0.961538 23.0769 1.96603 23.0769 3.20513V9.29487C23.0769 10.534 22.0724 11.5385 20.8333 11.5385H3.20513C1.96603 11.5385 0.961538 10.534 0.961538 9.29487V3.20513C0.961538 1.96603 1.96603 0.961538 3.20513 0.961538ZM0 3.20513C0 1.43498 1.43499 0 3.20513 0H20.8333C22.6035 0 24.0385 1.43499 24.0385 3.20513V9.29487C24.0385 11.065 22.6035 12.5 20.8333 12.5H3.20513C1.43498 12.5 0 11.065 0 9.29487V3.20513ZM26.6026 6.25C26.6026 7.23512 25.9188 8.06055 25 8.27759V4.22241C25.9188 4.43945 26.6026 5.26488 26.6026 6.25Z" fill="black"/>
</svg>
