<svg width="38" height="34" viewBox="0 0 38 34" fill="none" xmlns="http://www.w3.org/2000/svg">
<path d="M1 17L5 13.4444M5 13.4444L19 1L33 13.4444M5 13.4444V31.2222C5 31.6937 5.21071 32.1459 5.58579 32.4793C5.96086 32.8127 6.46957 33 7 33H13M33 13.4444L37 17M33 13.4444V31.2222C33 31.6937 32.7893 32.1459 32.4142 32.4793C32.0391 32.8127 31.5304 33 31 33H25M13 33C13.5304 33 14.0391 32.8127 14.4142 32.4793C14.7893 32.1459 15 31.6937 15 31.2222V24.1111C15 23.6396 15.2107 23.1874 15.5858 22.854C15.9609 22.5206 16.4696 22.3333 17 22.3333H21C21.5304 22.3333 22.0391 22.5206 22.4142 22.854C22.7893 23.1874 23 23.6396 23 24.1111V31.2222C23 31.6937 23.2107 32.1459 23.5858 32.4793C23.9609 32.8127 24.4696 33 25 33M13 33H25" stroke="black" stroke-width="2" stroke-linecap="round" stroke-linejoin="round"/>
</svg>
