<svg width="33" height="34" viewBox="0 0 33 34" fill="none" xmlns="http://www.w3.org/2000/svg">
<path d="M25.1111 8.11111H28.5556C29.4691 8.11111 30.3452 8.48571 30.9911 9.15251C31.6371 9.81931 32 10.7237 32 11.6667V22.3333C32 23.2763 31.6371 24.1807 30.9911 24.8475C30.3452 25.5143 29.4691 25.8889 28.5556 25.8889H25.1111V33L18.2222 25.8889H11.3333C10.881 25.8894 10.4329 25.7976 10.015 25.6188C9.59712 25.44 9.21754 25.1778 8.89811 24.8471M8.89811 24.8471L14.7778 18.7778H21.6667C22.5802 18.7778 23.4563 18.4032 24.1023 17.7364C24.7482 17.0696 25.1111 16.1652 25.1111 15.2222V4.55556C25.1111 3.61256 24.7482 2.70819 24.1023 2.0414C23.4563 1.3746 22.5802 1 21.6667 1H4.44444C3.53092 1 2.65481 1.3746 2.00885 2.0414C1.3629 2.70819 1 3.61256 1 4.55556V15.2222C1 16.1652 1.3629 17.0696 2.00885 17.7364C2.65481 18.4032 3.53092 18.7778 4.44444 18.7778H7.88889V25.8889L8.89811 24.8471Z" stroke="black" stroke-width="2" stroke-linecap="round" stroke-linejoin="round"/>
</svg>
