<svg width="34" height="34" viewBox="0 0 34 34" fill="none" xmlns="http://www.w3.org/2000/svg">
<path d="M27.6667 11.6667V17M27.6667 17V22.3333M27.6667 17H33M27.6667 17H22.3333M18.7778 8.11111C18.7778 9.9971 18.0286 11.8058 16.695 13.1394C15.3614 14.473 13.5527 15.2222 11.6667 15.2222C9.78068 15.2222 7.97194 14.473 6.63835 13.1394C5.30476 11.8058 4.55556 9.9971 4.55556 8.11111C4.55556 6.22513 5.30476 4.41639 6.63835 3.0828C7.97194 1.7492 9.78068 1 11.6667 1C13.5527 1 15.3614 1.7492 16.695 3.0828C18.0286 4.41639 18.7778 6.22513 18.7778 8.11111ZM1 31.2222C1 28.3932 2.12381 25.6801 4.12419 23.6798C6.12458 21.6794 8.83769 20.5556 11.6667 20.5556C14.4956 20.5556 17.2088 21.6794 19.2091 23.6798C21.2095 25.6801 22.3333 28.3932 22.3333 31.2222V33H1V31.2222Z" stroke="black" stroke-width="2" stroke-linecap="round" stroke-linejoin="round"/>
</svg>
