<svg width="27" height="34" viewBox="0 0 27 34" fill="none" xmlns="http://www.w3.org/2000/svg">
<path d="M20.6429 8.11111C20.6429 9.9971 19.8903 11.8058 18.5508 13.1394C17.2112 14.473 15.3944 15.2222 13.5 15.2222C11.6056 15.2222 9.78878 14.473 8.44924 13.1394C7.10969 11.8058 6.35714 9.9971 6.35714 8.11111C6.35714 6.22513 7.10969 4.41639 8.44924 3.0828C9.78878 1.7492 11.6056 1 13.5 1C15.3944 1 17.2112 1.7492 18.5508 3.0828C19.8903 4.41639 20.6429 6.22513 20.6429 8.11111ZM13.5 20.5556C10.1848 20.5556 7.00537 21.8667 4.66117 24.2004C2.31696 26.5342 1 29.6995 1 33H26C26 29.6995 24.683 26.5342 22.3388 24.2004C19.9946 21.8667 16.8152 20.5556 13.5 20.5556Z" stroke="#7626AB" stroke-width="2" stroke-linecap="round" stroke-linejoin="round"/>
</svg>
